<?xml version="1.0" encoding="utf-8"?>
<!-- Generator: Adobe Illustrator 16.0.0, SVG Export Plug-In . SVG Version: 6.00 Build 0)  -->
<!DOCTYPE svg PUBLIC "-//W3C//DTD SVG 1.1//EN" "http://www.w3.org/Graphics/SVG/1.1/DTD/svg11.dtd">
<svg version="1.1" id="Layer_1" xmlns="http://www.w3.org/2000/svg" xmlns:xlink="http://www.w3.org/1999/xlink" x="0px" y="0px"
	 width="60px" height="60px" viewBox="0 0 60 60" style="enable-background:new 0 0 60 60;" xml:space="preserve">
<style type="text/css">
<![CDATA[
	.st0{fill:#F8AB1D;}
	.st1{fill:none;stroke:#031334;stroke-miterlimit:10;}
	.st2{fill:#FFFFFF;}
]]>
</style>
<circle class="st0" cx="38.711" cy="28.634" r="8.708"/>
<line class="st1" x1="39.916" y1="8.14" x2="39.916" y2="15.189"/>
<line class="st1" x1="25.071" y1="13.291" x2="30.056" y2="18.275"/>
<line class="st1" x1="52.35" y1="43.979" x2="47.364" y2="38.995"/>
<line class="st1" x1="59.205" y1="29.841" x2="52.155" y2="29.841"/>
<line class="st1" x1="54.056" y1="14.996" x2="49.071" y2="19.981"/>
<g>
	
		<image style="overflow:visible;opacity:0.42;" width="47" height="32" xlink:href="D18B2150.png"  transform="matrix(1 0 0 1 1 19)">
	</image>
	<g>
		<path class="st2" d="M42.903,38.69c0-3.646-2.797-6.633-6.361-6.944c-0.471-5.772-5.295-10.311-11.188-10.311
			c-5.019,0-9.265,3.291-10.707,7.832c-1.104-0.499-2.326-0.782-3.616-0.782c-4.869,0-8.815,3.946-8.815,8.815
			c0,1.061,0.365,2.325,0.711,3.32c0.363,1.048,0.923,2.016,1.701,2.811c2.239,2.29,5.508,2.696,8.552,2.709
			c2.695,0.013,5.392-0.032,8.086-0.032c2.23,0,4.459,0,6.688,0c1.121,0,2.244-0.073,3.365-0.015c3.03,0.159,5.89-0.037,8.514-1.707
			c0.649-0.412,1.252-0.944,1.724-1.554c0.41-0.531,0.741-1.202,0.946-1.841C42.729,40.28,42.903,39.44,42.903,38.69z"/>
	</g>
</g>
</svg>
