<?xml version="1.0" encoding="utf-8"?>
<!-- Generator: Adobe Illustrator 16.0.0, SVG Export Plug-In . SVG Version: 6.00 Build 0)  -->
<!DOCTYPE svg PUBLIC "-//W3C//DTD SVG 1.1//EN" "http://www.w3.org/Graphics/SVG/1.1/DTD/svg11.dtd">
<svg version="1.1" id="Layer_1" xmlns="http://www.w3.org/2000/svg" xmlns:xlink="http://www.w3.org/1999/xlink" x="0px" y="0px"
	 width="60px" height="60px" viewBox="0 0 60 60" style="enable-background:new 0 0 60 60;" xml:space="preserve">
<style type="text/css">
<![CDATA[
	.st0{fill:#FFFFFF;}
]]>
</style>
<g>
	
		<image style="overflow:visible;opacity:0.42;" width="54" height="35" xlink:href="A9530C5B.png"  transform="matrix(1 0 0 1 3.625 13.5029)">
	</image>
	<g>
		<path class="st0" d="M51.766,35.563c0-4.137-3.174-7.527-7.22-7.881c-0.534-6.55-6.009-11.702-12.696-11.702
			c-5.695,0-10.514,3.734-12.151,8.887c-1.253-0.565-2.639-0.887-4.103-0.887c-5.525,0-10.004,4.479-10.004,10.004
			c0,1.203,0.415,2.639,0.807,3.768c0.413,1.189,1.048,2.288,1.93,3.19c2.542,2.599,6.251,3.06,9.705,3.074
			c3.058,0.014,6.119-0.037,9.178-0.037c2.529,0,5.06,0,7.59,0c1.272,0,2.547-0.083,3.818-0.017
			c3.438,0.181,6.684-0.042,9.662-1.938c0.736-0.468,1.421-1.071,1.956-1.763c0.466-0.603,0.841-1.364,1.073-2.089
			C51.568,37.367,51.766,36.415,51.766,35.563z"/>
	</g>
</g>
</svg>
