<?xml version="1.0" encoding="utf-8"?>
<!-- Generator: Adobe Illustrator 16.0.0, SVG Export Plug-In . SVG Version: 6.00 Build 0)  -->
<!DOCTYPE svg PUBLIC "-//W3C//DTD SVG 1.1//EN" "http://www.w3.org/Graphics/SVG/1.1/DTD/svg11.dtd">
<svg version="1.1" id="Layer_1" xmlns="http://www.w3.org/2000/svg" xmlns:xlink="http://www.w3.org/1999/xlink" x="0px" y="0px"
	 width="60px" height="60px" viewBox="0 0 60 60" style="enable-background:new 0 0 60 60;" xml:space="preserve">
<style type="text/css">
<![CDATA[
	.st0{fill:#FFFFFF;}
]]>
</style>
<g>
	
		<image style="overflow:visible;opacity:0.42;" width="37" height="24" xlink:href="5442ADE7.png"  transform="matrix(1 0 0 1 27.4863 22.9912)">
	</image>
	<g>
		<path class="st0" d="M58.57,37.551c0-2.646-2.029-4.814-4.617-5.041c-0.341-4.188-3.843-7.483-8.118-7.483
			c-3.643,0-6.724,2.388-7.771,5.683c-0.802-0.361-1.688-0.567-2.624-0.567c-3.533,0-6.397,2.864-6.397,6.398
			c0,0.769,0.265,1.688,0.515,2.408c0.265,0.761,0.67,1.464,1.235,2.041c1.625,1.661,3.997,1.956,6.205,1.966
			c1.957,0.009,3.914-0.023,5.87-0.023c1.617,0,3.235,0,4.853,0c0.814,0,1.63-0.054,2.443-0.011
			c2.198,0.115,4.273-0.027,6.179-1.238c0.471-0.301,0.909-0.687,1.251-1.128c0.297-0.385,0.537-0.872,0.687-1.335
			C58.444,38.703,58.57,38.096,58.57,37.551z"/>
	</g>
</g>
<g>
	
		<image style="overflow:visible;opacity:0.42;" width="49" height="32" xlink:href="5442ADE5.png"  transform="matrix(1 0 0 1 -0.5137 14.9912)">
	</image>
	<g>
		<path class="st0" d="M42.726,35.377c0-3.699-2.839-6.732-6.457-7.048c-0.478-5.858-5.374-10.465-11.355-10.465
			c-5.094,0-9.403,3.34-10.868,7.948c-1.121-0.506-2.361-0.793-3.669-0.793c-4.941,0-8.947,4.005-8.947,8.947
			c0,1.077,0.37,2.361,0.721,3.371c0.369,1.063,0.937,2.045,1.726,2.852c2.272,2.325,5.59,2.737,8.68,2.75
			c2.735,0.012,5.473-0.033,8.208-0.033c2.262,0,4.525,0,6.788,0c1.138,0,2.277-0.074,3.415-0.014
			c3.075,0.16,5.978-0.039,8.642-1.733c0.658-0.419,1.271-0.959,1.749-1.577c0.417-0.538,0.752-1.219,0.96-1.867
			C42.549,36.989,42.726,36.139,42.726,35.377z"/>
	</g>
</g>
</svg>
