<?xml version="1.0" encoding="utf-8"?>
<!-- Generator: Adobe Illustrator 16.0.0, SVG Export Plug-In . SVG Version: 6.00 Build 0)  -->
<!DOCTYPE svg PUBLIC "-//W3C//DTD SVG 1.1//EN" "http://www.w3.org/Graphics/SVG/1.1/DTD/svg11.dtd">
<svg version="1.1" id="Layer_1" xmlns="http://www.w3.org/2000/svg" xmlns:xlink="http://www.w3.org/1999/xlink" x="0px" y="0px"
	 width="60px" height="60px" viewBox="0 0 60 60" style="enable-background:new 0 0 60 60;" xml:space="preserve">
<style type="text/css">
<![CDATA[
	.st0{fill:#FFFFFF;}
	.st1{fill:none;stroke:#313340;stroke-miterlimit:10;}
]]>
</style>
<g>
	
		<image style="overflow:visible;opacity:0.42;" width="36" height="24" xlink:href="5D123870.png"  transform="matrix(0.9623 0 0 0.9623 25.9819 22.2915)">
	</image>
	<g>
		<path class="st0" d="M55.348,36.329c0-2.52-1.933-4.583-4.395-4.797c-0.325-3.988-3.657-7.124-7.728-7.124
			c-3.466,0-6.399,2.273-7.396,5.409c-0.764-0.343-1.607-0.54-2.497-0.54c-3.362,0-6.089,2.727-6.089,6.089
			c0,0.731,0.253,1.607,0.491,2.292c0.251,0.726,0.638,1.395,1.175,1.943c1.546,1.581,3.805,1.861,5.905,1.87
			c1.863,0.009,3.727-0.022,5.589-0.022c1.538,0,3.078,0,4.618,0c0.774,0,1.552-0.05,2.325-0.01
			c2.092,0.109,4.067-0.025,5.881-1.179c0.447-0.286,0.864-0.653,1.19-1.072c0.283-0.367,0.511-0.832,0.653-1.271
			C55.229,37.426,55.348,36.848,55.348,36.329z"/>
	</g>
</g>
<g>
	
		<image style="overflow:visible;opacity:0.42;" width="47" height="31" xlink:href="5D123877.png"  transform="matrix(0.9623 0 0 0.9623 0 15.5557)">
	</image>
	<g>
		<path class="st0" d="M40.267,34.26c0-3.521-2.701-6.408-6.146-6.708c-0.455-5.575-5.114-9.96-10.807-9.96
			c-4.848,0-8.949,3.178-10.344,7.565c-1.066-0.481-2.246-0.755-3.491-0.755c-4.704,0-8.516,3.813-8.516,8.515
			c0,1.025,0.353,2.247,0.687,3.21c0.351,1.01,0.892,1.946,1.643,2.714c2.163,2.213,5.321,2.604,8.261,2.616
			c2.604,0.012,5.208-0.03,7.812-0.03c2.153,0,4.307,0,6.461,0c1.083,0,2.168-0.07,3.25-0.015c2.926,0.154,5.688-0.036,8.225-1.649
			c0.627-0.398,1.209-0.912,1.665-1.5c0.396-0.511,0.716-1.16,0.913-1.778C40.099,35.795,40.267,34.985,40.267,34.26z"/>
	</g>
</g>
<line class="st1" x1="14.63" y1="50.167" x2="22.858" y2="42.276"/>
<line class="st1" x1="18.745" y1="55.263" x2="26.974" y2="47.373"/>
<line class="st1" x1="33.066" y1="50.176" x2="41.296" y2="42.285"/>
</svg>
