<?xml version="1.0" encoding="utf-8"?>
<!-- Generator: Adobe Illustrator 16.0.0, SVG Export Plug-In . SVG Version: 6.00 Build 0)  -->
<!DOCTYPE svg PUBLIC "-//W3C//DTD SVG 1.1//EN" "http://www.w3.org/Graphics/SVG/1.1/DTD/svg11.dtd">
<svg version="1.1" id="Layer_1" xmlns="http://www.w3.org/2000/svg" xmlns:xlink="http://www.w3.org/1999/xlink" x="0px" y="0px"
	 width="60px" height="60px" viewBox="0 0 60 60" style="enable-background:new 0 0 60 60;" xml:space="preserve">
<style type="text/css">
<![CDATA[
	.st0{fill:#FFFFFF;}
	.st1{fill:none;stroke:#313340;stroke-miterlimit:10;}
]]>
</style>
<g>
	
		<image style="overflow:visible;opacity:0.42;" width="36" height="24" xlink:href="5D123873.png"  transform="matrix(1 0 0 1 26 21)">
	</image>
	<g>
		<path class="st0" d="M56.516,35.587c0-2.618-2.008-4.762-4.566-4.984c-0.338-4.145-3.801-7.402-8.03-7.402
			c-3.602,0-6.65,2.362-7.686,5.621c-0.793-0.357-1.67-0.561-2.595-0.561c-3.493,0-6.328,2.834-6.328,6.328
			c0,0.76,0.263,1.67,0.51,2.382c0.261,0.754,0.663,1.449,1.221,2.02c1.607,1.643,3.954,1.934,6.137,1.943
			c1.936,0.009,3.872-0.023,5.808-0.023c1.599,0,3.198,0,4.799,0c0.805,0,1.612-0.052,2.416-0.01
			c2.174,0.113,4.227-0.027,6.111-1.226c0.465-0.297,0.898-0.679,1.237-1.114c0.294-0.382,0.531-0.864,0.679-1.321
			C56.392,36.727,56.516,36.126,56.516,35.587z"/>
	</g>
</g>
<g>
	
		<image style="overflow:visible;opacity:0.42;" width="47" height="31" xlink:href="5D123871.png"  transform="matrix(1 0 0 1 -1 14)">
	</image>
	<g>
		<path class="st0" d="M40.844,33.437c0-3.659-2.807-6.658-6.387-6.971c-0.473-5.794-5.314-10.351-11.23-10.351
			c-5.038,0-9.299,3.303-10.749,7.861c-1.108-0.5-2.334-0.785-3.628-0.785C3.962,23.191,0,27.153,0,32.04
			c0,1.065,0.366,2.335,0.713,3.335c0.364,1.05,0.927,2.022,1.707,2.82c2.248,2.3,5.53,2.707,8.585,2.719
			c2.706,0.013,5.413-0.031,8.118-0.031c2.237,0,4.476,0,6.714,0c1.126,0,2.253-0.073,3.378-0.016
			c3.041,0.16,5.912-0.037,8.546-1.714c0.651-0.414,1.257-0.947,1.73-1.559c0.412-0.531,0.744-1.206,0.949-1.848
			C40.67,35.032,40.844,34.191,40.844,33.437z"/>
	</g>
</g>
<line class="st1" x1="14.203" y1="49.968" x2="22.754" y2="41.768"/>
<line class="st1" x1="18.479" y1="55.263" x2="27.031" y2="47.064"/>
<line class="st1" x1="33.361" y1="49.977" x2="41.914" y2="41.776"/>
</svg>
