<?xml version="1.0" encoding="utf-8"?>
<!-- Generator: Adobe Illustrator 16.0.0, SVG Export Plug-In . SVG Version: 6.00 Build 0)  -->
<!DOCTYPE svg PUBLIC "-//W3C//DTD SVG 1.1//EN" "http://www.w3.org/Graphics/SVG/1.1/DTD/svg11.dtd">
<svg version="1.1" xmlns="http://www.w3.org/2000/svg" xmlns:xlink="http://www.w3.org/1999/xlink" x="0px" y="0px"
	 width="595.28px" height="841.89px" viewBox="0 0 595.28 841.89" style="enable-background:new 0 0 595.28 841.89;"
	 xml:space="preserve">
<style type="text/css">
<![CDATA[
	.st0{fill:#F8AB1D;}
	.st1{fill:none;stroke:#031334;stroke-miterlimit:10;}
	.st2{fill:#FFFFFF;}
	.st3{fill:#313340;}
	.st4{fill:#D1D1D1;}
	.st5{display:none;}
	.st6{fill:none;stroke:#313340;stroke-miterlimit:10;}
]]>
</style>
<g id="Layer_1" class="st5">
	
		<image style="display:inline;overflow:visible;" width="600" height="540" xlink:href="../../../../../../Desktop/outline-weather-icon-600w-573918580.jpg"  transform="matrix(1.0796 0 0 1.0796 -19.8755 116.3901)">
	</image>
</g>
<g id="Layer_2">
	<g>
		
			<image style="overflow:visible;opacity:0.42;" width="54" height="35" xlink:href="127E0523.png"  transform="matrix(1 0 0 1 34 185.8901)">
		</image>
		<g>
			<path class="st2" d="M82.141,208.061c0-4.137-3.174-7.528-7.22-7.881c-0.535-6.55-6.009-11.702-12.697-11.702
				c-5.695,0-10.514,3.734-12.151,8.887c-1.253-0.565-2.639-0.887-4.103-0.887c-5.525,0-10.004,4.479-10.004,10.004
				c0,1.204,0.415,2.639,0.807,3.769c0.413,1.188,1.048,2.288,1.93,3.19c2.542,2.599,6.251,3.059,9.705,3.074
				c3.058,0.014,6.119-0.037,9.177-0.037c2.53,0,5.06,0,7.59,0c1.272,0,2.546-0.083,3.818-0.017
				c3.438,0.181,6.683-0.042,9.663-1.938c0.735-0.468,1.42-1.071,1.956-1.763c0.466-0.602,0.841-1.364,1.073-2.088
				C81.943,209.864,82.141,208.913,82.141,208.061z"/>
		</g>
	</g>
	<g>
		
			<image style="overflow:visible;opacity:0.42;" width="54" height="35" xlink:href="127E0521.png"  transform="matrix(1 0 0 1 422 179.8901)">
		</image>
		<g>
			<path class="st2" d="M470.016,201.955c0-4.137-3.174-7.528-7.22-7.881c-0.534-6.55-6.009-11.702-12.696-11.702
				c-5.695,0-10.514,3.734-12.151,8.887c-1.253-0.565-2.64-0.887-4.103-0.887c-5.525,0-10.004,4.479-10.004,10.004
				c0,1.204,0.414,2.639,0.807,3.769c0.412,1.188,1.047,2.288,1.93,3.19c2.541,2.599,6.251,3.059,9.705,3.074
				c3.059,0.014,6.119-0.037,9.178-0.037c2.529,0,5.06,0,7.59,0c1.272,0,2.547-0.083,3.818-0.017
				c3.438,0.181,6.684-0.042,9.662-1.938c0.736-0.468,1.421-1.071,1.956-1.763c0.466-0.602,0.841-1.364,1.073-2.088
				C469.818,203.758,470.016,202.807,470.016,201.955z"/>
		</g>
	</g>
	<g>
		
			<image style="overflow:visible;opacity:0.42;" width="53" height="35" xlink:href="127E0527.png"  transform="matrix(1 0 0 1 325 271.8901)">
		</image>
		<g>
			<path class="st2" d="M372.766,293.936c0-4.137-3.174-7.528-7.22-7.881c-0.534-6.55-6.009-11.702-12.696-11.702
				c-5.695,0-10.514,3.734-12.151,8.887c-1.253-0.565-2.64-0.887-4.103-0.887c-5.525,0-10.004,4.479-10.004,10.004
				c0,1.204,0.414,2.639,0.807,3.769c0.412,1.188,1.047,2.288,1.93,3.19c2.541,2.599,6.251,3.059,9.705,3.074
				c3.059,0.014,6.119-0.037,9.178-0.037c2.529,0,5.06,0,7.59,0c1.272,0,2.547-0.083,3.818-0.017
				c3.438,0.181,6.684-0.042,9.662-1.938c0.736-0.468,1.421-1.071,1.956-1.763c0.466-0.602,0.841-1.364,1.073-2.088
				C372.568,295.739,372.766,294.788,372.766,293.936z"/>
		</g>
	</g>
	<g>
		
			<image style="overflow:visible;opacity:0.42;" width="40" height="27" xlink:href="127E0522.png"  transform="matrix(1 0 0 1 249 282.8901)">
		</image>
		<g>
			<path class="st2" d="M283.857,299.134c0-2.958-2.269-5.383-5.162-5.635c-0.382-4.684-4.297-8.367-9.079-8.367
				c-4.072,0-7.518,2.67-8.688,6.354c-0.896-0.404-1.888-0.634-2.934-0.634c-3.951,0-7.153,3.202-7.153,7.153
				c0,0.86,0.296,1.887,0.577,2.694c0.295,0.85,0.749,1.636,1.38,2.281c1.817,1.858,4.47,2.188,6.939,2.198
				c2.188,0.01,4.376-0.026,6.563-0.026c1.808,0,3.618,0,5.427,0c0.91,0,1.821-0.06,2.731-0.013c2.458,0.13,4.778-0.03,6.908-1.385
				c0.527-0.335,1.016-0.767,1.399-1.26c0.333-0.43,0.601-0.975,0.768-1.494C283.717,300.424,283.857,299.744,283.857,299.134z"/>
		</g>
	</g>
	<g>
		
			<image style="overflow:visible;opacity:0.42;" width="54" height="35" xlink:href="127E052D.png"  transform="matrix(1 0 0 1 218 274.8901)">
		</image>
		<g>
			<path class="st2" d="M266.141,296.705c0-4.137-3.174-7.528-7.22-7.881c-0.534-6.55-6.009-11.702-12.696-11.702
				c-5.695,0-10.514,3.734-12.151,8.887c-1.253-0.565-2.64-0.887-4.103-0.887c-5.525,0-10.004,4.479-10.004,10.004
				c0,1.204,0.414,2.639,0.807,3.769c0.412,1.188,1.047,2.288,1.93,3.19c2.541,2.599,6.251,3.059,9.705,3.074
				c3.059,0.014,6.119-0.037,9.178-0.037c2.529,0,5.06,0,7.59,0c1.272,0,2.547-0.083,3.818-0.017
				c3.438,0.181,6.684-0.042,9.662-1.938c0.736-0.468,1.421-1.071,1.956-1.763c0.466-0.602,0.841-1.364,1.073-2.088
				C265.943,298.508,266.141,297.557,266.141,296.705z"/>
		</g>
	</g>
	<g>
		
			<image style="overflow:visible;opacity:0.42;" width="40" height="28" xlink:href="127E052E.png"  transform="matrix(1 0 0 1 348 188.8901)">
		</image>
		<g>
			<path class="st2" d="M382.834,205.884c0-2.958-2.27-5.383-5.162-5.635c-0.382-4.684-4.297-8.367-9.078-8.367
				c-4.072,0-7.518,2.67-8.688,6.354c-0.896-0.404-1.888-0.634-2.934-0.634c-3.95,0-7.153,3.202-7.153,7.153
				c0,0.86,0.297,1.887,0.576,2.694c0.295,0.85,0.749,1.636,1.381,2.281c1.816,1.858,4.469,2.188,6.938,2.198
				c2.188,0.01,4.376-0.026,6.563-0.026c1.808,0,3.617,0,5.426,0c0.91,0,1.822-0.06,2.731-0.013c2.458,0.13,4.778-0.03,6.908-1.385
				c0.526-0.335,1.017-0.767,1.399-1.26c0.332-0.43,0.601-0.975,0.768-1.494C382.693,207.174,382.834,206.494,382.834,205.884z"/>
		</g>
	</g>
	<g>
		
			<image style="overflow:visible;opacity:0.42;" width="54" height="36" xlink:href="127E052F.png"  transform="matrix(1 0 0 1 317 180.8901)">
		</image>
		<g>
			<path class="st2" d="M365.117,203.455c0-4.137-3.174-7.528-7.22-7.881c-0.534-6.55-6.009-11.702-12.696-11.702
				c-5.695,0-10.514,3.734-12.151,8.887c-1.253-0.565-2.64-0.887-4.103-0.887c-5.525,0-10.004,4.479-10.004,10.004
				c0,1.204,0.414,2.639,0.807,3.769c0.412,1.188,1.047,2.288,1.93,3.19c2.541,2.599,6.251,3.059,9.705,3.074
				c3.059,0.014,6.119-0.037,9.178-0.037c2.529,0,5.06,0,7.59,0c1.272,0,2.547-0.083,3.818-0.017
				c3.438,0.181,6.684-0.042,9.662-1.938c0.736-0.468,1.421-1.071,1.956-1.763c0.466-0.602,0.841-1.364,1.073-2.088
				C364.92,205.258,365.117,204.307,365.117,203.455z"/>
		</g>
	</g>
	<circle class="st0" cx="166.633" cy="204.273" r="9.883"/>
	<line class="st1" x1="168" y1="181.015" x2="168" y2="189.015"/>
	<line class="st1" x1="151.153" y1="186.86" x2="156.811" y2="192.517"/>
	<line class="st1" x1="182.11" y1="221.688" x2="176.453" y2="216.031"/>
	<line class="st1" x1="189.891" y1="205.643" x2="181.891" y2="205.643"/>
	<line class="st1" x1="184.047" y1="188.795" x2="178.391" y2="194.453"/>
	<circle class="st0" cx="59.276" cy="504.728" r="11.427"/>
	<g>
		<path class="st4" d="M270.016,188.14c0-1.804,0.36-3.521,1.002-5.094c-7.172,0.32-12.893,6.218-12.893,13.469
			c0,7.456,6.044,13.5,13.5,13.5c5.652,0,10.487-3.477,12.498-8.406c-0.203,0.009-0.402,0.031-0.607,0.031
			C276.06,201.64,270.016,195.596,270.016,188.14z"/>
	</g>
	<g>
		<path class="st4" d="M444.105,495.218c-0.331-2.089-0.229-4.144,0.225-6.082c-8.244,1.687-13.784,9.564-12.453,17.959
			c1.368,8.633,9.474,14.52,18.106,13.151c6.543-1.037,11.501-5.949,12.926-12.024c-0.233,0.048-0.46,0.109-0.697,0.147
			C453.579,509.738,445.474,503.849,444.105,495.218z"/>
	</g>
	<g>
		
			<image style="overflow:visible;opacity:0.42;" width="53" height="35" xlink:href="127E0524.png"  transform="matrix(1 0 0 1 224 190.8901)">
		</image>
		<g>
			<path class="st2" d="M271.266,212.686c0-4.137-3.174-7.528-7.22-7.881c-0.535-6.55-6.009-11.702-12.697-11.702
				c-5.695,0-10.514,3.734-12.151,8.887c-1.253-0.565-2.639-0.887-4.103-0.887c-5.525,0-10.004,4.479-10.004,10.004
				c0,1.204,0.415,2.639,0.807,3.769c0.413,1.188,1.048,2.288,1.93,3.19c2.542,2.599,6.251,3.059,9.705,3.074
				c3.058,0.014,6.119-0.037,9.177-0.037c2.53,0,5.06,0,7.59,0c1.272,0,2.546-0.083,3.818-0.017
				c3.438,0.181,6.683-0.042,9.663-1.938c0.735-0.468,1.42-1.071,1.956-1.763c0.466-0.602,0.841-1.364,1.073-2.088
				C271.068,214.489,271.266,213.538,271.266,212.686z"/>
		</g>
	</g>
	<g>
		<path class="st4" d="M561.766,182.577c0-1.804,0.36-3.521,1.002-5.094c-7.172,0.32-12.893,6.218-12.893,13.469
			c0,7.456,6.044,13.5,13.5,13.5c5.652,0,10.486-3.477,12.498-8.406c-0.203,0.009-0.402,0.031-0.607,0.031
			C567.81,196.077,561.766,190.033,561.766,182.577z"/>
	</g>
	<g>
		
			<image style="overflow:visible;opacity:0.42;" width="53" height="35" xlink:href="AC36BDDA.png"  transform="matrix(1 0 0 1 515.75 185.3267)">
		</image>
		<g>
			<path class="st2" d="M563.016,207.123c0-4.137-3.174-7.528-7.22-7.881c-0.534-6.55-6.009-11.702-12.696-11.702
				c-5.695,0-10.514,3.734-12.151,8.887c-1.253-0.565-2.64-0.887-4.103-0.887c-5.525,0-10.004,4.479-10.004,10.004
				c0,1.204,0.414,2.639,0.807,3.769c0.412,1.188,1.047,2.288,1.93,3.19c2.541,2.599,6.251,3.059,9.705,3.074
				c3.059,0.014,6.119-0.037,9.178-0.037c2.529,0,5.06,0,7.59,0c1.272,0,2.547-0.083,3.818-0.017
				c3.438,0.181,6.684-0.042,9.662-1.938c0.736-0.468,1.421-1.071,1.956-1.763c0.466-0.602,0.841-1.364,1.073-2.088
				C562.818,208.926,563.016,207.974,563.016,207.123z"/>
		</g>
	</g>
	<g>
		<path class="st4" d="M175.783,274.418c0-1.804,0.36-3.521,1.002-5.094c-7.172,0.32-12.893,6.218-12.893,13.469
			c0,7.456,6.044,13.5,13.5,13.5c5.652,0,10.487-3.477,12.498-8.406c-0.203,0.009-0.402,0.031-0.607,0.031
			C181.827,287.918,175.783,281.875,175.783,274.418z"/>
	</g>
	<g>
		
			<image style="overflow:visible;opacity:0.42;" width="54" height="35" xlink:href="AC36BDDD.png"  transform="matrix(1 0 0 1 129 276.8901)">
		</image>
		<g>
			<path class="st2" d="M177.033,298.964c0-4.137-3.174-7.528-7.22-7.881c-0.535-6.55-6.009-11.702-12.697-11.702
				c-5.695,0-10.514,3.734-12.151,8.887c-1.253-0.565-2.639-0.887-4.103-0.887c-5.525,0-10.004,4.479-10.004,10.004
				c0,1.204,0.415,2.639,0.807,3.769c0.413,1.188,1.048,2.288,1.93,3.19c2.542,2.599,6.251,3.059,9.705,3.074
				c3.058,0.014,6.119-0.037,9.177-0.037c2.53,0,5.06,0,7.59,0c1.272,0,2.546-0.083,3.818-0.017
				c3.438,0.181,6.683-0.042,9.663-1.938c0.735-0.468,1.42-1.071,1.956-1.763c0.466-0.602,0.841-1.364,1.073-2.088
				C176.836,300.768,177.033,299.816,177.033,298.964z"/>
		</g>
	</g>
	<line class="st6" x1="59.275" y1="479.549" x2="59.275" y2="487.549"/>
	<line class="st6" x1="41.472" y1="486.923" x2="47.128" y2="492.582"/>
	<line class="st6" x1="34.097" y1="504.728" x2="42.097" y2="504.729"/>
	<line class="st6" x1="41.472" y1="522.533" x2="47.128" y2="516.876"/>
	<line class="st6" x1="59.276" y1="529.908" x2="59.276" y2="521.908"/>
	<line class="st6" x1="77.081" y1="522.533" x2="71.424" y2="516.875"/>
	<line class="st6" x1="84.456" y1="504.728" x2="76.455" y2="504.727"/>
	<line class="st6" x1="77.081" y1="486.923" x2="71.423" y2="492.58"/>
	<g>
		
			<image style="overflow:visible;opacity:0.42;" width="53" height="35" xlink:href="AC36BDDE.png"  transform="matrix(1 0 0 1 124 193.8901)">
		</image>
		<g>
			<path class="st2" d="M171.391,215.686c0-4.137-3.174-7.528-7.22-7.881c-0.535-6.55-6.009-11.702-12.697-11.702
				c-5.695,0-10.514,3.734-12.151,8.887c-1.253-0.565-2.639-0.887-4.103-0.887c-5.525,0-10.004,4.479-10.004,10.004
				c0,1.204,0.415,2.639,0.807,3.769c0.413,1.188,1.048,2.288,1.93,3.19c2.542,2.599,6.251,3.059,9.705,3.074
				c3.058,0.014,6.119-0.037,9.177-0.037c2.53,0,5.06,0,7.59,0c1.272,0,2.546-0.083,3.818-0.017
				c3.438,0.181,6.683-0.042,9.663-1.938c0.735-0.468,1.42-1.071,1.956-1.763c0.466-0.602,0.841-1.364,1.073-2.088
				C171.193,217.489,171.391,216.538,171.391,215.686z"/>
		</g>
	</g>
	<circle class="st0" cx="459.439" cy="290.067" r="9.883"/>
	<line class="st1" x1="460.807" y1="266.809" x2="460.807" y2="274.809"/>
	<line class="st1" x1="443.96" y1="272.654" x2="449.617" y2="278.311"/>
	<line class="st1" x1="474.917" y1="307.481" x2="469.26" y2="301.825"/>
	<line class="st1" x1="482.697" y1="291.437" x2="474.697" y2="291.437"/>
	<line class="st1" x1="476.854" y1="274.589" x2="471.197" y2="280.247"/>
	<g>
		
			<image style="overflow:visible;opacity:0.42;" width="53" height="35" xlink:href="AC36BDDC.png"  transform="matrix(1 0 0 1 416.8066 279.6841)">
		</image>
		<g>
			<path class="st2" d="M464.197,301.48c0-4.137-3.174-7.528-7.22-7.881c-0.534-6.55-6.009-11.702-12.696-11.702
				c-5.695,0-10.514,3.734-12.151,8.887c-1.253-0.565-2.64-0.887-4.103-0.887c-5.525,0-10.004,4.479-10.004,10.004
				c0,1.204,0.414,2.639,0.807,3.769c0.412,1.188,1.047,2.288,1.93,3.19c2.541,2.599,6.251,3.059,9.705,3.074
				c3.059,0.014,6.119-0.037,9.178-0.037c2.529,0,5.06,0,7.59,0c1.272,0,2.547-0.083,3.818-0.017
				c3.438,0.181,6.684-0.042,9.662-1.938c0.736-0.468,1.421-1.071,1.956-1.763c0.466-0.602,0.841-1.364,1.073-2.088
				C464,303.283,464.197,302.332,464.197,301.48z"/>
		</g>
	</g>
	<circle class="st0" cx="75.513" cy="290.067" r="9.883"/>
	<line class="st1" x1="76.88" y1="266.809" x2="76.88" y2="274.809"/>
	<line class="st1" x1="60.034" y1="272.654" x2="65.691" y2="278.311"/>
	<line class="st1" x1="90.991" y1="307.481" x2="85.333" y2="301.825"/>
	<line class="st1" x1="98.771" y1="291.437" x2="90.771" y2="291.437"/>
	<line class="st1" x1="92.927" y1="274.589" x2="87.271" y2="280.247"/>
	<g>
		
			<image style="overflow:visible;opacity:0.42;" width="53" height="35" xlink:href="AC36BDDB.png"  transform="matrix(1 0 0 1 32.8804 279.6841)">
		</image>
		<g>
			<path class="st2" d="M80.271,301.48c0-4.137-3.174-7.528-7.22-7.881c-0.535-6.55-6.009-11.702-12.697-11.702
				c-5.695,0-10.514,3.734-12.151,8.887c-1.253-0.565-2.639-0.887-4.103-0.887c-5.525,0-10.004,4.479-10.004,10.004
				c0,1.204,0.415,2.639,0.807,3.769c0.413,1.188,1.048,2.288,1.93,3.19c2.542,2.599,6.251,3.059,9.705,3.074
				c3.058,0.014,6.119-0.037,9.177-0.037c2.53,0,5.06,0,7.59,0c1.272,0,2.546-0.083,3.818-0.017
				c3.438,0.181,6.683-0.042,9.663-1.938c0.735-0.468,1.42-1.071,1.956-1.763c0.466-0.602,0.841-1.364,1.073-2.088
				C80.074,303.283,80.271,302.332,80.271,301.48z"/>
		</g>
	</g>
	<line class="st6" x1="335" y1="222.142" x2="344.667" y2="212.872"/>
	<line class="st6" x1="339.834" y1="228.129" x2="349.501" y2="218.859"/>
	<line class="st6" x1="356.659" y1="222.152" x2="366.326" y2="212.882"/>
	<line class="st6" x1="428.701" y1="221" x2="438.368" y2="211.73"/>
	<line class="st6" x1="433.535" y1="226.988" x2="443.202" y2="217.717"/>
	<line class="st6" x1="450.36" y1="221.011" x2="460.027" y2="211.74"/>
	<g>
		
			<image style="overflow:visible;opacity:0.42;" width="54" height="35" xlink:href="AC36BDC5.png"  transform="matrix(1 0 0 1 36.5508 377.4292)">
		</image>
		<g>
			<path class="st2" d="M84.691,399.6c0-4.137-3.174-7.528-7.22-7.881c-0.535-6.55-6.009-11.702-12.697-11.702
				c-5.695,0-10.514,3.734-12.151,8.887c-1.253-0.565-2.639-0.887-4.103-0.887c-5.525,0-10.004,4.479-10.004,10.004
				c0,1.204,0.415,2.639,0.807,3.769c0.413,1.188,1.048,2.288,1.93,3.19c2.542,2.599,6.251,3.059,9.705,3.074
				c3.058,0.014,6.119-0.037,9.177-0.037c2.53,0,5.06,0,7.59,0c1.272,0,2.546-0.083,3.818-0.017
				c3.438,0.181,6.683-0.042,9.663-1.938c0.735-0.468,1.42-1.071,1.956-1.763c0.466-0.602,0.841-1.364,1.073-2.088
				C84.494,401.403,84.691,400.452,84.691,399.6z"/>
		</g>
	</g>
	<g>
		
			<image style="overflow:visible;opacity:0.42;" width="53" height="35" xlink:href="AC36BDC6.png"  transform="matrix(1 0 0 1 412 385.8901)">
		</image>
		<g>
			<path class="st2" d="M459.73,407.862c0-4.137-3.174-7.528-7.22-7.881c-0.534-6.55-6.009-11.702-12.696-11.702
				c-5.695,0-10.514,3.734-12.151,8.887c-1.253-0.565-2.64-0.887-4.103-0.887c-5.525,0-10.004,4.479-10.004,10.004
				c0,1.204,0.414,2.639,0.807,3.769c0.412,1.188,1.047,2.288,1.93,3.19c2.541,2.599,6.251,3.059,9.705,3.074
				c3.059,0.014,6.119-0.037,9.178-0.037c2.529,0,5.06,0,7.59,0c1.272,0,2.547-0.083,3.818-0.017
				c3.438,0.181,6.684-0.042,9.662-1.938c0.736-0.468,1.421-1.071,1.956-1.763c0.466-0.602,0.841-1.364,1.073-2.088
				C459.533,409.665,459.73,408.713,459.73,407.862z"/>
		</g>
	</g>
	<g>
		
			<image style="overflow:visible;opacity:0.42;" width="40" height="28" xlink:href="AC36BDC4.png"  transform="matrix(1 0 0 1 349.9805 386.4204)">
		</image>
		<g>
			<path class="st2" d="M384.814,403.415c0-2.958-2.27-5.383-5.162-5.635c-0.382-4.684-4.297-8.367-9.078-8.367
				c-4.072,0-7.518,2.67-8.688,6.354c-0.896-0.404-1.888-0.634-2.934-0.634c-3.95,0-7.153,3.202-7.153,7.153
				c0,0.86,0.297,1.887,0.576,2.694c0.295,0.85,0.749,1.636,1.381,2.281c1.816,1.858,4.469,2.188,6.938,2.198
				c2.188,0.01,4.376-0.026,6.563-0.026c1.808,0,3.617,0,5.426,0c0.91,0,1.822-0.06,2.731-0.013c2.458,0.13,4.778-0.03,6.908-1.385
				c0.526-0.335,1.017-0.767,1.399-1.26c0.332-0.43,0.601-0.975,0.768-1.494C384.674,404.704,384.814,404.024,384.814,403.415z"/>
		</g>
	</g>
	<g>
		
			<image style="overflow:visible;opacity:0.42;" width="54" height="36" xlink:href="AC36BDCA.png"  transform="matrix(1 0 0 1 318.9805 378.4204)">
		</image>
		<g>
			<path class="st2" d="M367.098,400.985c0-4.137-3.174-7.528-7.22-7.881c-0.534-6.55-6.009-11.702-12.696-11.702
				c-5.695,0-10.514,3.734-12.151,8.887c-1.253-0.565-2.64-0.887-4.103-0.887c-5.525,0-10.004,4.479-10.004,10.004
				c0,1.204,0.414,2.639,0.807,3.769c0.412,1.188,1.047,2.288,1.93,3.19c2.541,2.599,6.251,3.059,9.705,3.074
				c3.059,0.014,6.119-0.037,9.178-0.037c2.529,0,5.06,0,7.59,0c1.272,0,2.547-0.083,3.818-0.017
				c3.438,0.181,6.684-0.042,9.662-1.938c0.736-0.468,1.421-1.071,1.956-1.763c0.466-0.602,0.841-1.364,1.073-2.088
				C366.9,402.789,367.098,401.837,367.098,400.985z"/>
		</g>
	</g>
	<circle class="st0" cx="169.684" cy="392.773" r="9.883"/>
	<line class="st1" x1="171.051" y1="369.515" x2="171.051" y2="377.515"/>
	<line class="st1" x1="154.204" y1="375.36" x2="159.861" y2="381.017"/>
	<line class="st1" x1="185.161" y1="410.188" x2="179.504" y2="404.531"/>
	<line class="st1" x1="192.941" y1="394.143" x2="184.941" y2="394.143"/>
	<line class="st1" x1="187.098" y1="377.295" x2="181.441" y2="382.953"/>
	<g>
		<path class="st4" d="M273.066,376.64c0-1.804,0.36-3.521,1.002-5.094c-7.172,0.32-12.893,6.218-12.893,13.469
			c0,7.456,6.044,13.5,13.5,13.5c5.652,0,10.487-3.477,12.498-8.406c-0.203,0.009-0.402,0.031-0.607,0.031
			C279.11,390.14,273.066,384.096,273.066,376.64z"/>
	</g>
	<g>
		
			<image style="overflow:visible;opacity:0.42;" width="53" height="35" xlink:href="AC36BDCD.png"  transform="matrix(1 0 0 1 227.0508 379.3901)">
		</image>
		<g>
			<path class="st2" d="M274.316,401.186c0-4.137-3.174-7.528-7.22-7.881c-0.535-6.55-6.009-11.702-12.697-11.702
				c-5.695,0-10.514,3.734-12.151,8.887c-1.253-0.565-2.639-0.887-4.103-0.887c-5.525,0-10.004,4.479-10.004,10.004
				c0,1.204,0.415,2.639,0.807,3.769c0.413,1.188,1.048,2.288,1.93,3.19c2.542,2.599,6.251,3.059,9.705,3.074
				c3.058,0.014,6.119-0.037,9.177-0.037c2.53,0,5.06,0,7.59,0c1.272,0,2.546-0.083,3.818-0.017
				c3.438,0.181,6.683-0.042,9.663-1.938c0.735-0.468,1.42-1.071,1.956-1.763c0.466-0.602,0.841-1.364,1.073-2.088
				C274.119,402.989,274.316,402.038,274.316,401.186z"/>
		</g>
	</g>
	<g>
		
			<image style="overflow:visible;opacity:0.42;" width="53" height="35" xlink:href="AC36BDE1.png"  transform="matrix(1 0 0 1 127.0508 382.3901)">
		</image>
		<g>
			<path class="st2" d="M174.441,404.186c0-4.137-3.174-7.528-7.22-7.881c-0.535-6.55-6.009-11.702-12.697-11.702
				c-5.695,0-10.514,3.734-12.151,8.887c-1.253-0.565-2.639-0.887-4.103-0.887c-5.525,0-10.004,4.479-10.004,10.004
				c0,1.204,0.415,2.639,0.807,3.769c0.413,1.188,1.048,2.288,1.93,3.19c2.542,2.599,6.251,3.059,9.705,3.074
				c3.058,0.014,6.119-0.037,9.177-0.037c2.53,0,5.06,0,7.59,0c1.272,0,2.546-0.083,3.818-0.017
				c3.438,0.181,6.683-0.042,9.663-1.938c0.735-0.468,1.42-1.071,1.956-1.763c0.466-0.602,0.841-1.364,1.073-2.088
				C174.244,405.989,174.441,405.038,174.441,404.186z"/>
		</g>
	</g>
	<line class="st6" x1="38.097" y1="320.663" x2="47.764" y2="311.392"/>
	<line class="st6" x1="42.931" y1="326.65" x2="52.598" y2="317.379"/>
	<line class="st6" x1="59.756" y1="320.673" x2="69.423" y2="311.402"/>
	<line class="st6" x1="134.49" y1="318.521" x2="144.157" y2="309.25"/>
	<line class="st6" x1="139.324" y1="325.508" x2="148.991" y2="316.238"/>
	<line class="st6" x1="156.149" y1="318.531" x2="165.816" y2="309.261"/>
	<circle class="st3" cx="244.063" cy="311.994" r="1.354"/>
	<circle class="st3" cx="250.563" cy="317.828" r="1.354"/>
	<circle class="st3" cx="246.479" cy="322.078" r="1.354"/>
	<circle class="st3" cx="254.688" cy="313.577" r="1.354"/>
	<circle class="st3" cx="266.405" cy="311.751" r="1.354"/>
	<circle class="st3" cx="261.989" cy="316.043" r="1.354"/>
	<circle class="st3" cx="239.479" cy="315.661" r="1.354"/>
	<circle class="st3" cx="339.324" cy="308.965" r="1.354"/>
	<circle class="st3" cx="345.824" cy="314.799" r="1.354"/>
	<circle class="st3" cx="341.74" cy="319.049" r="1.354"/>
	<circle class="st3" cx="349.949" cy="310.548" r="1.354"/>
	<circle class="st3" cx="361.667" cy="308.722" r="1.354"/>
	<circle class="st3" cx="357.25" cy="313.014" r="1.354"/>
	<circle class="st3" cx="334.741" cy="312.632" r="1.354"/>
	<circle class="st3" cx="431.498" cy="315.483" r="1.354"/>
	<circle class="st3" cx="437.998" cy="321.316" r="1.354"/>
	<circle class="st3" cx="433.914" cy="325.566" r="1.354"/>
	<circle class="st3" cx="442.123" cy="317.066" r="1.354"/>
	<circle class="st3" cx="453.84" cy="315.24" r="1.354"/>
	<circle class="st3" cx="449.424" cy="319.532" r="1.354"/>
	<circle class="st3" cx="426.915" cy="319.149" r="1.354"/>
	<circle class="st3" cx="531.048" cy="220.456" r="1.354"/>
	<circle class="st3" cx="537.548" cy="226.29" r="1.354"/>
	<circle class="st3" cx="533.465" cy="230.54" r="1.354"/>
	<circle class="st3" cx="541.673" cy="222.039" r="1.354"/>
	<circle class="st3" cx="553.391" cy="220.213" r="1.354"/>
	<circle class="st3" cx="548.975" cy="224.505" r="1.354"/>
	<circle class="st3" cx="526.465" cy="224.123" r="1.354"/>
	<polyline class="st6" points="57.585,410.026 50.667,416.724 58.083,416.724 50.667,424.473 	"/>
	<polyline class="st6" points="69.5,409.64 65.833,413.642 70.667,413.642 65.833,418.14 	"/>
	<polyline class="st6" points="62.417,422.973 56.167,428.557 61.604,428.557 56.667,433.223 	"/>
	<polyline class="st6" points="148.273,414.276 141.354,420.974 148.771,420.974 141.354,428.723 	"/>
	<polyline class="st6" points="160.188,413.89 156.521,417.892 161.354,417.892 156.521,422.39 	"/>
	<polyline class="st6" points="153.104,427.223 146.854,432.807 152.292,432.807 147.354,437.473 	"/>
	<polyline class="st6" points="248.148,412.068 241.229,418.766 248.646,418.766 241.229,426.515 	"/>
	<polyline class="st6" points="260.063,411.682 256.396,415.684 261.229,415.684 256.396,420.182 	"/>
	<polyline class="st6" points="252.979,425.015 246.729,430.599 252.167,430.599 247.229,435.265 	"/>
	<polyline class="st6" points="348.719,412.454 341.799,419.151 349.217,419.151 341.799,426.901 	"/>
	<polyline class="st6" points="360.633,412.068 356.967,416.07 361.799,416.07 356.967,420.568 	"/>
	<polyline class="st6" points="353.549,425.401 347.299,430.985 352.737,430.985 347.799,435.651 	"/>
	<path class="st6" d="M422.5,416.318c0,0,38.655,0,38.667,0c0.329,0,0.849,0.366,1.124,0.509c0.866,0.45,1.692,0.983,2.443,1.607
		c0.926,0.769,1.747,1.683,2.353,2.727c1.242,2.141,1.097,4.6-0.042,6.743c-0.304,0.571-0.661,1.146-1.063,1.654
		c-0.961,1.219-2.245,2.09-3.804,2.297c-0.406,0.054-0.826,0.074-1.236,0.061c-0.504-0.017-1.015-0.091-1.508-0.199
		c-1.216-0.266-2.415-0.758-3.269-1.696c-0.725-0.798-1.459-1.784-1.91-2.762c-0.246-0.536-0.46-1.259-0.416-1.857"/>
	<path class="st6" d="M447.5,407.89h12.833c0,0,5.395-5.417,3.864-9.375c-0.589-1.522-2.105-2.858-3.71-3.17
		c-1.681-0.327-3.965-0.128-5.405,0.858c-0.79,0.541-1.358,1.398-1.788,2.243c-0.362,0.711-0.611,1.506-0.808,2.278"/>
	<path class="st6" d="M464.471,410.39h12.833c0,0,5.395-5.417,3.864-9.375c-0.637-1.648-2.306-3.022-4.065-3.204
		c-2.712-0.281-5.088,0.179-6.546,2.608c-0.517,0.861-0.853,1.835-1.1,2.804"/>
</g>
</svg>
